<svg xmlns="http://www.w3.org/2000/svg" width="256" height="256" viewBox="0 0 256 256" role="img" aria-labelledby="title desc">
  <title id="title">GameNest Default Gamer Avatar</title>
  <desc id="desc">Stylized gaming controller avatar placeholder</desc>
  <defs>
    <linearGradient id="bgGradient" x1="0%" y1="0%" x2="100%" y2="100%">
      <stop offset="0%" stop-color="#1f2937" />
      <stop offset="100%" stop-color="#0f172a" />
    </linearGradient>
    <linearGradient id="padGradient" x1="0%" y1="0%" x2="100%" y2="0%">
      <stop offset="0%" stop-color="#6366f1" />
      <stop offset="100%" stop-color="#7c3aed" />
    </linearGradient>
    <linearGradient id="buttonGradient" x1="0%" y1="0%" x2="0%" y2="100%">
      <stop offset="0%" stop-color="#facc15" />
      <stop offset="100%" stop-color="#f97316" />
    </linearGradient>
  </defs>
  <rect width="256" height="256" rx="36" fill="url(#bgGradient)" />
  <g transform="translate(32 70)">
    <path d="M48 0h96c26.51 0 48 21.49 48 48v20c0 18.78-15.22 34-34 34h-18.85l-16.37 24.55c-4.23 6.35-11.28 10.45-18.78 10.45s-14.55-4.1-18.78-10.45L68.85 102H50c-18.78 0-34-15.22-34-34V48C16 21.49 37.49 0 64 0Z" fill="url(#padGradient)" />
    <circle cx="58" cy="58" r="18" fill="#111827" />
    <rect x="50" y="55" width="16" height="6" rx="3" fill="#e5e7eb" />
    <rect x="55" y="50" width="6" height="16" rx="3" fill="#e5e7eb" />
    <circle cx="146" cy="58" r="14" fill="url(#buttonGradient)" />
    <circle cx="170" cy="50" r="10" fill="#22d3ee" />
    <circle cx="170" cy="70" r="10" fill="#f472b6" />
    <circle cx="134" cy="38" r="8" fill="#a78bfa" />
    <circle cx="134" cy="78" r="8" fill="#10b981" />
    <circle cx="96" cy="90" r="9" fill="#1f2937" opacity="0.75" />
  </g>
  <path d="M129 210a11 11 0 1 1-22 0 11 11 0 0 1 22 0Z" fill="#14b8a6" />
</svg>
